<svg xmlns="http://www.w3.org/2000/svg" width="80" height="80" viewBox="0 0 80 80" fill="none">
  <rect width="80" height="80" rx="20" fill="#FFF4D6"/>
  <path d="M40 22a11 11 0 1 1 0 22 11 11 0 0 1 0-22Z" fill="#FF8A3D"/>
  <path d="M24 57.5c0-8.56 7.16-15.5 16-15.5s16 6.94 16 15.5a2.5 2.5 0 0 1-2.5 2.5h-27a2.5 2.5 0 0 1-2.5-2.5Z" fill="#FF8A3D" opacity=".8"/>
  <path d="M33 38h14" stroke="#fff" stroke-width="3" stroke-linecap="round"/>
  <path d="M36 33c0-2.21 1.79-4 4-4s4 1.79 4 4" stroke="#fff" stroke-width="3" stroke-linecap="round"/>
</svg>
